HIERARCHY
ROOT Hip
{
	OFFSET 0 1.131 0.0052
	CHANNELS 6 Xposition Yposition Zposition Xrotation Yrotation Zrotation
	JOINT Abdomen
	{
		OFFSET 0 -0.047353 -0.05
		CHANNELS 3 Xrotation Zrotation Yrotation
		JOINT Chest
		{
			OFFSET 0 0.132153 0.007439
			CHANNELS 3 Xrotation Zrotation Yrotation
			JOINT Neck
			{
				OFFSET 0 0.3078 0.006161
				CHANNELS 3 Xrotation Zrotation Yrotation
				JOINT Head_comp
				{
					OFFSET 0 0.0884 0.013
					CHANNELS 3 Xrotation Yrotation Zrotation
					End Site
					{
						OFFSET -0 0.156 0.0624
					}
				}
			}
			JOINT Left_Collar
			{
				OFFSET 0.02282 0.250342 0.017193
				CHANNELS 2 Yrotation Zrotation
				JOINT Left_Shoulder
				{
					OFFSET 0.15421 0 0
					CHANNELS 3 Xrotation Yrotation Zrotation
					JOINT Left_Forearm
					{
						OFFSET 0.265212 0 0
						CHANNELS 2 Yrotation Xrotation
						JOINT Left_Hand
						{
							OFFSET 0.27571 0 0
							CHANNELS 2 Zrotation Yrotation
							JOINT L1ProxPhalanx
							{
								OFFSET 0.014142 0.001733 0.014142
								CHANNELS 3 Yrotation Zrotation Xrotation
								JOINT L1MidPhalanx
								{
									OFFSET 0.04 0 0
									CHANNELS 1 Zrotation
									JOINT L1DistPhalanx
									{
										OFFSET 0.035 0 0
										CHANNELS 1 Zrotation
										End Site
										{
											OFFSET 0.029 -0 -0
										}
									}
								}
							}
							JOINT L2ProxPhalanx
							{
								OFFSET 0.0821037 0.001578 0.0219996
								CHANNELS 2 Yrotation Zrotation
								JOINT L2MidPhalanx
								{
									OFFSET 0.04 0 0
									CHANNELS 1 Zrotation
									JOINT L2DistPhalanx
									{
										OFFSET 0.028 0 0
										CHANNELS 1 Zrotation
										End Site
										{
											OFFSET 0.02 -0 -0
										}
									}
								}
							}
							JOINT L3ProxPhalanx
							{
								OFFSET 0.083 0 0
								CHANNELS 2 Yrotation Zrotation
								JOINT L3MidPhalanx
								{
									OFFSET 0.053 0 0
									CHANNELS 1 Zrotation
									JOINT L3DistPhalanx
									{
										OFFSET 0.03 0 0
										CHANNELS 1 Zrotation
										End Site
										{
											OFFSET 0.023 -0 -0
										}
									}
								}
							}
							JOINT L4ProxPhalanx
							{
								OFFSET 0.077274 -0.000761 -0.0207055
								CHANNELS 2 Yrotation Zrotation
								JOINT L4MidPhalanx
								{
									OFFSET 0.05 0 0
									CHANNELS 1 Zrotation
									JOINT L4DistPhalanx
									{
										OFFSET 0.03 0 0
										CHANNELS 1 Zrotation
										End Site
										{
											OFFSET 0.023 -0 -0
										}
									}
								}
							}
							JOINT L5ProxPhalanx
							{
								OFFSET 0.0675499 -0.001644 -0.039
								CHANNELS 2 Yrotation Zrotation
								JOINT L5MidPhalanx
								{
									OFFSET 0.04 0 0
									CHANNELS 1 Zrotation
									JOINT L5DistPhalanx
									{
										OFFSET 0.021 0 0
										CHANNELS 1 Zrotation
										End Site
										{
											OFFSET 0.022 -0 -0
										}
									}
								}
							}
						}
					}
				}
			}
			JOINT Right_Collar
			{
				OFFSET -0.02282 0.250342 0.017193
				CHANNELS 2 Yrotation Zrotation
				JOINT Right_Shoulder
				{
					OFFSET -0.15421 0 0
					CHANNELS 3 Xrotation Yrotation Zrotation
					JOINT Right_Forearm
					{
						OFFSET -0.265212 0 0
						CHANNELS 2 Yrotation Xrotation
						JOINT Right_Hand
						{
							OFFSET -0.27571 3e-006 0
							CHANNELS 2 Zrotation Yrotation
							JOINT R1ProxPhalanx
							{
								OFFSET -0.014142 0.001733 0.014142
								CHANNELS 3 Yrotation Zrotation Xrotation
								JOINT R1MidPhalanx
								{
									OFFSET -0.04 0 0
									CHANNELS 1 Zrotation
									JOINT R1DistPhalanx
									{
										OFFSET -0.035 0 0
										CHANNELS 1 Zrotation
										End Site
										{
											OFFSET -0.029 -0 -0
										}
									}
								}
							}
							JOINT R2ProxPhalanx
							{
								OFFSET -0.0821037 0.001578 0.0219996
								CHANNELS 2 Yrotation Zrotation
								JOINT R2MidPhalanx
								{
									OFFSET -0.04 0 0
									CHANNELS 1 Zrotation
									JOINT R2DistPhalanx
									{
										OFFSET -0.028 0 0
										CHANNELS 1 Zrotation
										End Site
										{
											OFFSET -0.02 -0 -0
										}
									}
								}
							}
							JOINT R3ProxPhalanx
							{
								OFFSET -0.083 0 0
								CHANNELS 2 Yrotation Zrotation
								JOINT R3MidPhalanx
								{
									OFFSET -0.053 0 0
									CHANNELS 1 Zrotation
									JOINT R3DistPhalanx
									{
										OFFSET -0.03 0 0
										CHANNELS 1 Zrotation
										End Site
										{
											OFFSET -0.023 -0 -0
										}
									}
								}
							}
							JOINT R4ProxPhalanx
							{
								OFFSET -0.077274 -0.000761 -0.0207055
								CHANNELS 2 Yrotation Zrotation
								JOINT R4MidPhalanx
								{
									OFFSET -0.05 0 0
									CHANNELS 1 Zrotation
									JOINT R4DistPhalanx
									{
										OFFSET -0.03 0 0
										CHANNELS 1 Zrotation
										End Site
										{
											OFFSET -0.023 -0 -0
										}
									}
								}
							}
							JOINT R5ProxPhalanx
							{
								OFFSET -0.0675499 -0.001644 -0.039
								CHANNELS 2 Yrotation Zrotation
								JOINT R5MidPhalanx
								{
									OFFSET -0.04 0 0
									CHANNELS 1 Zrotation
									JOINT R5DistPhalanx
									{
										OFFSET -0.021 0 0
										CHANNELS 1 Zrotation
										End Site
										{
											OFFSET -0.022 -0 -0
										}
									}
								}
							}
						}
					}
				}
			}
		}
	}
	JOINT Left_Thigh
	{
		OFFSET 0.1118 -0.1612 -0.0442
		CHANNELS 3 Xrotation Zrotation Yrotation
		JOINT Left_Shin
		{
			OFFSET 0 -0.477856 0
			CHANNELS 1 Xrotation
			JOINT Left_Foot
			{
				OFFSET 0 -0.431952 0
				CHANNELS 2 Xrotation Zrotation
				JOINT Left_Toe
				{
					OFFSET 0 -0.0442 0.119
					CHANNELS 1 Xrotation
					End Site
					{
						OFFSET -0 -0 0.07
					}
				}
			}
		}
	}
	JOINT Right_Thigh
	{
		OFFSET -0.1118 -0.1612 -0.0442
		CHANNELS 3 Xrotation Zrotation Yrotation
		JOINT Right_Shin
		{
			OFFSET 0 -0.477856 0
			CHANNELS 1 Xrotation
			JOINT Right_Foot
			{
				OFFSET 0 -0.431952 0
				CHANNELS 2 Xrotation Zrotation
				JOINT Right_Toe
				{
					OFFSET 0 -0.0442 0.119
					CHANNELS 1 Xrotation
					End Site
					{
						OFFSET -0 -0 0.07
					}
				}
			}
		}
	}
}
MOTION
Frames: 7
Frame Time: 0.009975
-0.109587 -0.060029 0.0469004 -2.06205e-012 4.43678e-008 -5.10915e-006 0 0 0 0 0 0 0 0 0 0 0 0 0 0 -0 0 -0 0 0 0 0 -26.7202 -55.8716 121.097 -5.72431 -5.68838 8.21043 -5.12774 -14.9148 -16.8422 4.95093 1.14861 -7.19864 -6.66843 -1.66284 2.65904 -9.97926 -1.52928 2.21815 5.74453 -57.0006 42.7357 0 0 -0 0 -0 0 0 0 0 37.9386 28.008 73.698 26.2405 28.4472 13.118 18.2167 29.0248 19.6359 0 22.4358 32.6146 28.1246 -8.63175 30.7051 32.2053 23.7634 -7.83088 26.7354 35.1526 30.0193 0.486139 -0.139332 -0.00118227 0.0240216 -0.510159 0.139343 0 0.497544 -0.139332 -0.00121 0 -0.497542 0.139343 0 
-0.109587 -0.060029 0.0469004 -2.06205e-012 4.43678e-008 -5.10915e-006 0 0 0 0 0 0 0 0 0 0 0 0 0 0 -0 0 -0 0 0 0 0 -26.7202 -55.8716 121.097 -5.72431 -5.68838 8.21043 -5.12774 -14.9148 -16.8422 4.95093 1.14861 -7.19864 -6.66843 -1.66284 2.65904 -9.97926 -1.52928 2.21815 5.74453 -57.0006 42.7357 0 0 -0 0 -0 0 0 0 0 37.9386 28.008 73.698 26.2405 28.4472 13.118 18.2167 29.0248 19.6359 0 22.4358 32.6146 28.1246 -8.63175 30.7051 32.2053 23.7634 -7.83088 26.7354 35.1526 30.0193 0.486139 -0.139332 -0.00118227 0.0240216 -0.510159 0.139343 0 0.497544 -0.139332 -0.00121 0 -0.497542 0.139343 0 
-0.101406 -0.0600664 0.0338446 -9.58369e-013 -2.89556e-008 -5.08403e-006 0 -0 0 0 -0 0 0 -0 0 -0.709714 0.290975 -9.05605e-006 -12.4424 -6.89614 -42.9623 -13.1673 -22.3299 -21.9034 -4.33075 33.0858 1.21065 -26.996 -55.7677 120.763 -5.87069 -5.75994 8.1651 -5.25185 -15.0403 -16.833 4.92686 0.982994 -7.36265 -6.72508 -1.64751 2.48579 -10.1294 -1.61164 2.23664 5.59587 -56.8856 42.422 12.4424 6.89613 -42.9623 13.1673 22.3299 21.9034 -4.33075 -33.0858 -1.21065 26.996 55.7677 120.763 5.87069 5.75994 -8.1651 5.25185 15.0403 16.833 -4.92686 -0.982994 7.36265 6.72508 1.64751 -2.48579 10.1294 1.61164 -2.23664 -5.59587 56.8856 -42.422 -0.336036 -0.654562 0.0038486 0.0239015 0.312112 0.654579 0 -0.324687 -0.654563 0.00371862 2.40276e-006 0.324664 0.654579 0 
-0.10135 -0.0600708 0.0331535 -9.63192e-013 -2.91011e-008 -5.10958e-006 0 -0 0 0 -0 0 0 -0 0 -0.711605 0.290672 -1.94989e-010 -12.5048 -6.93065 -42.972 -12.4463 -23.035 -21.9877 -4.35224 33.2521 1.21656 -26.7202 -55.8716 121.097 -5.72431 -5.68838 8.21043 -5.12774 -14.9148 -16.8422 4.95093 1.14861 -7.19864 -6.66843 -1.66284 2.65904 -9.97926 -1.52928 2.21815 5.74453 -57.0006 42.7357 12.5048 6.93065 -42.972 12.4463 23.035 21.9877 -4.35224 -33.2521 -1.21656 26.7202 55.8716 121.097 5.72431 5.68838 -8.21043 5.12774 14.9148 16.8422 -4.95093 -1.14861 7.19864 6.66843 1.66284 -2.65904 9.97926 1.52928 -2.21815 -5.74453 57.0006 -42.7357 -0.379619 -0.658113 0.0043604 0.0240216 0.355573 0.658133 0 -0.368214 -0.658114 0.0042294 2.41484e-006 0.368187 0.658133 0 
-0.10135 -0.0600708 0.0331489 7.403e-013 -3.28655e-008 -5.10955e-006 0 -0 0 0 -0 0 0 -0 0 -0.711586 0.290653 -3.3258e-015 -12.5048 -6.93065 -42.9708 -12.4395 -23.0426 -21.9875 -4.35224 33.2521 1.21656 -26.7202 -55.8716 121.097 -5.72431 -5.68838 8.21043 -5.12774 -14.9148 -16.8422 4.95093 1.14861 -7.19864 -6.66843 -1.66284 2.65904 -9.97926 -1.52928 2.21815 5.74453 -57.0006 42.7357 12.5048 6.93065 -42.9708 12.4395 23.0426 21.9875 -4.35224 -33.2521 -1.21656 26.7202 55.8716 121.097 5.72431 5.68838 -8.21043 5.12774 14.9148 16.8422 -4.95093 -1.14861 7.19864 6.66843 1.66284 -2.65904 9.97926 1.52928 -2.21815 -5.74453 57.0006 -42.7357 -0.379908 -0.658118 0.00436375 0.0240216 0.355862 0.658138 0 -0.368503 -0.658119 0.00423275 2.41484e-008 0.368478 0.658138 0 
-0.10135 -0.0600708 0.0331489 -1.04004e-012 -3.2863e-008 -5.10955e-006 0 -0 0 0 -0 0 0 -0 0 -0.711586 0.290653 -0 -12.5048 -6.93065 -42.9708 -12.4395 -23.0426 -21.9875 -4.35224 33.2521 1.21656 -26.7202 -55.8716 121.097 -5.72431 -5.68838 8.21043 -5.12774 -14.9148 -16.8422 4.95093 1.14861 -7.19864 -6.66843 -1.66284 2.65904 -9.97926 -1.52928 2.21815 5.74453 -57.0006 42.7357 12.5048 6.93065 -42.9708 12.4395 23.0426 21.9875 -4.35224 -33.2521 -1.21656 26.7202 55.8716 121.097 5.72431 5.68838 -8.21043 5.12774 14.9148 16.8422 -4.95093 -1.14861 7.19864 6.66843 1.66284 -2.65904 9.97926 1.52928 -2.21815 -5.74453 57.0006 -42.7357 -0.379908 -0.658118 0.00436375 0.0240216 0.355861 0.658138 0 -0.368503 -0.658119 0.00423275 0 0.368478 0.658138 0 
-0.10135 -0.0600708 0.0331489 -9.82816e-013 -3.2863e-008 -5.10955e-006 0 -0 0 0 -0 0 0 -0 0 -0.711586 0.290653 -0 -12.5048 -6.93065 -42.9708 -12.4395 -23.0426 -21.9875 -4.35224 33.2521 1.21656 -26.7202 -55.8716 121.097 -5.72431 -5.68838 8.21043 -5.12774 -14.9148 -16.8422 4.95093 1.14861 -7.19864 -6.66843 -1.66284 2.65904 -9.97926 -1.52928 2.21815 5.74453 -57.0006 42.7357 12.5048 6.93065 -42.9708 12.4395 23.0426 21.9875 -4.35224 -33.2521 -1.21656 26.7202 55.8716 121.097 5.72431 5.68838 -8.21043 5.12774 14.9148 16.8422 -4.95093 -1.14861 7.19864 6.66843 1.66284 -2.65904 9.97926 1.52928 -2.21815 -5.74453 57.0006 -42.7357 -0.379908 -0.658118 0.00436375 0.0240216 0.355861 0.658138 0 -0.368502 -0.658119 0.00423274 1.68193e-006 0.368478 0.658138 0 
